<svg width="120" height="100" viewBox="0 0 120 100" fill="none" xmlns="http://www.w3.org/2000/svg">
<path fill-rule="evenodd" clip-rule="evenodd" d="M60.3 15C61.1 15 62.2 15 62.8 15.1C63.4 15.1 64.3 15.2 64.9 15.3C65.4 15.3 66.1 15.4 66.4 15.5C66.8 15.6 67.3 15.7 67.6 15.7C67.9 15.8 68.6 15.9 69.1 16.1C69.5 16.2 70.3 16.4 70.8 16.5C71.2 16.7 71.9 16.9 72.3 17C72.7 17.2 73.3 17.4 73.7 17.6C74.1 17.7 74.7 18 75 18.1C75.3 18.2 75.9 18.5 76.3 18.7C76.8 19 77.5 19.4 78 19.6C78.4 19.9 79.1 20.3 79.5 20.5C79.9 20.8 80.6 21.3 81.1 21.6C81.5 21.9 82.2 22.4 82.6 22.7C83 23.1 83.7 23.6 84.1 24C84.5 24.4 85.3 25.2 85.9 25.7C86.4 26.2 87.1 27 87.4 27.3C87.7 27.7 88.2 28.3 88.5 28.7C88.8 29.1 89.3 29.8 89.6 30.2C89.8 30.6 90.3 31.2 90.5 31.5C90.7 31.9 91.1 32.5 91.3 33C91.6 33.4 92 34.2 92.2 34.6C92.4 35.1 92.7 35.7 92.9 36C93 36.3 93.3 36.9 93.4 37.3C93.6 37.6 93.8 38.3 93.9 38.7C94.1 39 94.3 39.7 94.4 40.2C94.6 40.7 94.8 41.4 94.9 41.9C95 42.4 95.2 43 95.2 43.3C95.3 43.6 95.4 44.2 95.5 44.6C95.5 44.9 95.6 45.6 95.7 46.1C95.7 46.6 95.8 47.5 95.9 48.2C96 49.2 96 49.9 96 51C95.9 51.8 95.9 53 95.8 53.5C95.8 54.1 95.7 54.9 95.6 55.3C95.6 55.8 95.5 56.4 95.4 56.7C95.3 57.1 95.2 57.6 95.2 57.9C95.1 58.2 95 58.8 94.9 59.2C94.8 59.6 94.6 60.3 94.4 60.8C94.3 61.2 94.1 61.9 93.9 62.3C93.8 62.7 93.6 63.3 93.4 63.7C93.3 64.1 93 64.7 92.9 65C92.7 65.3 92.4 65.9 92.2 66.4C92 66.8 91.6 67.5 91.3 68C91.1 68.4 90.7 69.1 90.5 69.4C90.3 69.8 89.8 70.4 89.6 70.8C89.3 71.2 88.8 71.9 88.5 72.3C88.2 72.7 87.7 73.3 87.4 73.6C87.1 74 86.4 74.7 85.9 75.3C85.3 75.8 84.5 76.5 84.1 76.9C83.7 77.3 83 77.9 82.6 78.2C82.2 78.5 81.5 79.1 81.1 79.4C80.6 79.7 79.9 80.2 79.5 80.4C79.1 80.7 78.4 81.1 78 81.4C77.5 81.6 76.8 82 76.3 82.2C75.9 82.4 75.3 82.7 75 82.9C74.7 83 74.1 83.3 73.7 83.4C73.3 83.6 72.7 83.8 72.3 83.9C71.9 84.1 71.2 84.3 70.8 84.4C70.3 84.6 69.5 84.8 69.1 84.9C68.6 85 67.9 85.2 67.6 85.2C67.3 85.3 66.8 85.4 66.4 85.5C66.1 85.5 65.4 85.6 64.9 85.7C64.3 85.8 63.4 85.8 62.8 85.9C62.2 85.9 61.1 86 60.5 86C59.8 86 58.8 85.9 58.2 85.9C57.5 85.8 56.6 85.8 56.1 85.7C55.6 85.6 54.9 85.5 54.5 85.5C54.2 85.4 53.6 85.3 53.3 85.2C53 85.2 52.4 85 51.9 84.9C51.4 84.8 50.7 84.6 50.2 84.4C49.7 84.3 49 84.1 48.7 83.9C48.3 83.8 47.6 83.6 47.3 83.4C46.9 83.3 46.3 83 46 82.9C45.7 82.7 45.1 82.4 44.6 82.2C44.2 82 43.4 81.6 43 81.4C42.5 81.1 41.8 80.7 41.4 80.4C41 80.2 40.4 79.7 39.9 79.4C39.5 79.1 38.8 78.5 38.4 78.2C38 77.9 37.3 77.3 36.9 76.9C36.4 76.5 35.6 75.8 35.1 75.3C34.6 74.7 33.9 74 33.6 73.6C33.3 73.3 32.8 72.7 32.5 72.3C32.2 71.9 31.7 71.2 31.4 70.8C31.1 70.4 30.7 69.8 30.5 69.4C30.3 69.1 29.9 68.4 29.6 68C29.4 67.5 29 66.8 28.7 66.4C28.5 65.9 28.2 65.3 28.1 65C28 64.7 27.7 64.1 27.6 63.7C27.4 63.3 27.2 62.7 27 62.3C26.9 61.9 26.7 61.2 26.5 60.8C26.4 60.3 26.2 59.5 26.1 59.1C25.9 58.6 25.8 57.9 25.7 57.6C25.7 57.3 25.6 56.8 25.5 56.4C25.4 56 25.3 55.3 25.3 54.9C25.2 54.4 25.1 53.4 25.1 52.7C25 51.8 25 51.1 25 50C25 49.1 25.1 48 25.1 47.5C25.2 46.9 25.3 46.1 25.3 45.7C25.4 45.2 25.5 44.6 25.6 44.2C25.6 43.9 25.7 43.4 25.8 43.1C25.8 42.8 26 42.2 26.1 41.8C26.2 41.4 26.4 40.7 26.5 40.2C26.7 39.7 26.9 39 27 38.7C27.2 38.3 27.4 37.6 27.6 37.3C27.7 36.9 28 36.3 28.1 36C28.2 35.7 28.5 35.1 28.7 34.6C29 34.2 29.4 33.4 29.6 33C29.9 32.5 30.3 31.8 30.5 31.4C30.8 31 31.3 30.4 31.6 29.9C31.9 29.5 32.4 28.8 32.7 28.4C33.1 28 33.6 27.3 34 26.9C34.4 26.4 35.2 25.6 35.7 25.1C36.2 24.6 37 23.9 37.3 23.6C37.7 23.3 38.3 22.8 38.7 22.5C39.1 22.2 39.8 21.7 40.2 21.4C40.6 21.1 41.2 20.7 41.5 20.5C41.9 20.3 42.5 19.9 43 19.6C43.4 19.4 44.2 19 44.6 18.7C45.1 18.5 45.7 18.2 46 18.1C46.3 18 46.9 17.7 47.3 17.6C47.6 17.4 48.3 17.2 48.7 17C49 16.9 49.7 16.7 50.2 16.5C50.7 16.4 51.4 16.2 51.9 16.1C52.4 15.9 53 15.8 53.3 15.7C53.6 15.7 54.2 15.6 54.5 15.5C54.9 15.4 55.6 15.3 56.1 15.3C56.7 15.2 57.5 15.1 58 15.1C58.6 15 59.6 15 60.3 15ZM56.8 17.5C56.3 17.6 55.5 17.7 54.9 17.8C54.4 17.9 53.6 18.1 53.1 18.2C52.6 18.3 51.7 18.5 51.2 18.7C50.6 18.8 49.7 19.1 49.2 19.3C48.7 19.5 47.9 19.8 47.4 20C46.9 20.2 46.1 20.6 45.6 20.9C45 21.2 44.2 21.6 43.8 21.8C43.4 22.1 42.7 22.5 42.2 22.8C41.8 23.1 41.1 23.6 40.7 23.9C40.2 24.2 39.6 24.7 39.3 25C39 25.3 38.3 25.8 37.9 26.3C37.4 26.7 36.7 27.4 36.3 27.9C35.8 28.3 35.3 29 35 29.3C34.7 29.6 34.2 30.2 33.9 30.7C33.6 31.1 33.1 31.8 32.8 32.2C32.5 32.7 32.1 33.4 31.8 33.8C31.6 34.2 31.2 35 30.9 35.6C30.6 36.1 30.2 36.9 30 37.4C29.8 37.9 29.5 38.7 29.3 39.2C29.1 39.7 28.8 40.6 28.7 41.2C28.5 41.7 28.3 42.6 28.2 43.1C28.1 43.6 27.9 44.4 27.8 45C27.7 45.5 27.6 46.3 27.5 46.8C27.5 47.2 27.4 47.9 27.4 48.4C27.4 48.8 27.3 49.8 27.3 50.5C27.3 51.2 27.4 52.2 27.4 52.6C27.4 53.1 27.5 53.8 27.5 54.2C27.6 54.6 27.7 55.5 27.8 56C27.9 56.6 28.1 57.4 28.2 57.9C28.3 58.4 28.5 59.2 28.7 59.8C28.8 60.4 29.1 61.3 29.3 61.8C29.5 62.3 29.8 63.1 30 63.6C30.2 64 30.6 64.9 30.9 65.4C31.2 65.9 31.6 66.7 31.8 67.2C32.1 67.6 32.5 68.3 32.8 68.7C33.1 69.2 33.6 69.9 33.9 70.3C34.2 70.7 34.7 71.4 35 71.7C35.3 72 35.8 72.6 36.3 73.1C36.7 73.6 37.4 74.3 37.9 74.7C38.3 75.1 39 75.7 39.3 76C39.6 76.2 40.2 76.7 40.7 77.1C41.1 77.4 41.8 77.9 42.2 78.2C42.7 78.4 43.4 78.9 43.8 79.1C44.2 79.4 45 79.8 45.6 80.1C46.1 80.4 46.9 80.7 47.4 80.9C47.9 81.1 48.7 81.5 49.2 81.7C49.7 81.8 50.6 82.1 51.2 82.3C51.7 82.5 52.6 82.7 53.1 82.8C53.6 82.9 54.4 83.1 55 83.2C55.5 83.3 56.3 83.4 56.8 83.4C57.2 83.5 57.9 83.5 58.4 83.6C58.8 83.6 59.8 83.6 60.5 83.6C61.2 83.6 62.2 83.6 62.6 83.6C63.1 83.5 63.8 83.5 64.2 83.4C64.6 83.4 65.5 83.3 66 83.2C66.6 83.1 67.4 82.9 67.9 82.8C68.4 82.7 69.2 82.5 69.8 82.3C70.4 82.1 71.3 81.8 71.8 81.7C72.3 81.5 73.1 81.1 73.6 80.9C74 80.7 74.9 80.4 75.4 80.1C75.9 79.8 76.7 79.4 77.2 79.1C77.6 78.9 78.3 78.4 78.7 78.2C79.2 77.9 79.9 77.4 80.3 77.1C80.7 76.7 81.4 76.2 81.7 76C82 75.7 82.6 75.1 83.1 74.7C83.6 74.3 84.3 73.6 84.7 73.1C85.1 72.6 85.7 72 86 71.7C86.2 71.4 86.7 70.7 87 70.3C87.4 69.9 87.9 69.2 88.2 68.7C88.4 68.3 88.9 67.6 89.1 67.2C89.4 66.7 89.8 65.9 90.1 65.4C90.4 64.9 90.7 64 90.9 63.6C91.1 63.1 91.5 62.3 91.6 61.8C91.8 61.3 92.1 60.4 92.3 59.8C92.5 59.2 92.7 58.4 92.8 57.9C92.9 57.4 93.1 56.6 93.2 56C93.3 55.5 93.4 54.6 93.4 54.2C93.5 53.8 93.5 53.1 93.6 52.6C93.6 52.2 93.6 51.2 93.6 50.5C93.6 49.8 93.6 48.8 93.6 48.4C93.5 47.9 93.5 47.2 93.4 46.8C93.4 46.3 93.3 45.5 93.2 45C93.1 44.4 92.9 43.6 92.8 43.1C92.7 42.6 92.5 41.7 92.3 41.2C92.1 40.6 91.8 39.7 91.6 39.2C91.5 38.7 91.1 37.9 90.9 37.4C90.7 36.9 90.4 36.1 90.1 35.6C89.8 35 89.4 34.2 89.1 33.8C88.9 33.4 88.4 32.7 88.2 32.2C87.9 31.8 87.4 31.1 87 30.7C86.7 30.2 86.2 29.6 86 29.3C85.7 29 85.1 28.3 84.7 27.9C84.3 27.4 83.6 26.7 83.1 26.3C82.6 25.8 82 25.3 81.7 25C81.4 24.7 80.7 24.2 80.3 23.9C79.9 23.6 79.2 23.1 78.7 22.8C78.3 22.5 77.6 22.1 77.2 21.8C76.7 21.6 75.9 21.2 75.4 20.9C74.9 20.6 74 20.2 73.6 20C73.1 19.8 72.3 19.5 71.8 19.3C71.3 19.1 70.4 18.8 69.8 18.7C69.2 18.5 68.4 18.3 67.9 18.2C67.4 18.1 66.6 17.9 66 17.8C65.5 17.7 64.6 17.6 64.2 17.5C63.8 17.5 63.1 17.4 62.6 17.4C62.2 17.4 61.1 17.4 60.3 17.4C59.5 17.4 58.6 17.4 58.2 17.4C57.9 17.4 57.2 17.5 56.8 17.5ZM58.5 19.2L59.5 21.6C60 22.9 60.4 24 60.4 24.1C60.4 24.1 60.4333 24.1 60.5 24.1C60.5 24 61 22.9 62.5 19.2H63.2C63.6 19.2 64.2 19.3 64.6 19.3C65 19.4 65.4 19.4 65.4 19.4C65.4 19.4 65.5 21.4 65.6 23.8C65.7 26.1 65.7 28.1 65.7 28.1C65.7 28.1 65.4 28.1 64.9 28C64.4 27.9 64 27.9 63.9 27.9C63.8 27.9 63.7 27.9 63.7 27.8C63.6 27.8 63.6 27.1 63.5 25.3C63.5 23.9 63.4 22.6 63.4 22.3C63.4 22.1 63.4 21.9 63.4 22C63.3 22 62.9 23 61.4 26.3H59.6L58.6 24.2C58.1 23 57.6 22 57.6 21.9C57.6 21.9 57.6 22.1 57.5 22.3C57.5 22.5 57.5 23.8 57.4 25.2C57.4 27.1 57.3 27.8 57.3 27.8C57.2 27.9 57.1 27.9 57 27.9C57 27.9 56.5 27.9 56.1 28C55.6 28.1 55.2 28.1 55.2 28.1C55.2 28.1 55.3 26.1 55.4 23.8C55.5 21.4 55.6 19.4 55.6 19.4C55.6 19.4 56.1 19.3 56.6 19.3C57.1333 19.2333 57.7667 19.2 58.5 19.2ZM78.3 24.6L78.5 24.7C78.6 24.8 79 25.1 79.3 25.4C79.7 25.7 79.9 25.9 79.9 25.9C79.9 26 79.3 27 78.4 28.3C77.6 29.5 76.9 30.6 76.9 30.6C76.9 30.6 77.9 30.1 81 28.6L82.5 30L81.4 32C80.9 33.1 80.4 34 80.5 34C80.5 34.1 81.5 33.4 82.7 32.6C84 31.7 85 31.1 85 31.1C85.1 31.1 85.4 31.4 85.8 31.9C86.1 32.4 86.4 32.7 86.4 32.7C86.4 32.8 84.8 33.8 79.2 37.3L79.1 37.1C79 37 78.7 36.6 78.3 36.2C78 35.8 77.7 35.4 77.7 35.4C77.7 35.4 78.2 34.4 78.8 33.3C79.4 32.1 79.9 31.1 79.9 31.1C79.8 31.1 78.9 31.6 75.5 33.3L74.9 32.7C74.5 32.4 74.1 32.1 74 32C73.8 31.8667 73.7 31.7667 73.7 31.7C73.8 31.7 74.7 30.2 75.7 28.6C76.8 26.9 77.8 25.3 78 25L78.3 24.6ZM41.5 26.3C41.8 26.3 42.1 26.3 42.3 26.4C42.4 26.4 42.7 26.6 42.8 26.7C42.9 26.8 43.1 27 43.2 27.1C43.3 27.2 43.5 27.5 43.6 27.8C43.7 28.1 43.7 28.2 43.6 28.5C43.6 28.9 43.6 28.9 43.7 28.9C43.8 28.9 43.9 28.8 44.1 28.8C44.2 28.8 44.5 28.7 44.7 28.7C44.9667 28.7667 45.2333 28.8333 45.5 28.9C45.7 29 45.9 29.2 46.1 29.4C46.2 29.5 46.4 29.8 46.5 30C46.7 30.4 46.7 30.4 46.7 30.9C46.7 31.4 46.7 31.5 46.6 31.8C46.5 32 46.3 32.3 46.2 32.5C46 32.7 45.3 33.5 44.6 34.3C43.9 35.1 42.8 36.3 42.2 36.9C41.5 37.6 41 38.1 41 38.1C41 38.1 39.6 36.8 37.9 35.2C36.3 33.6 34.9 32.3 34.9 32.3C34.9 32.3 35.2 31.9 35.5 31.5C35.8 31.1 36.4 30.5 36.7 30.1C37 29.8 37.6 29.1 38.1 28.6C38.6 28.1 39.1 27.5 39.4 27.3C39.6 27 40 26.8 40.2 26.6C40.4 26.5 40.7 26.4 40.8 26.4C40.9 26.3 41.3 26.3 41.5 26.3ZM40 29.1C39.6 29.5 38.9 30.3 38.4 30.9C38 31.4 37.6 31.9 37.6 31.9C37.6 31.9 37.8 32.2 38.1 32.5C38.4 32.8 38.7 33 38.7 33C38.7 33 39.1 32.6 39.6 32.1C40.1 31.6 40.8 30.8 41.2 30.4C41.6 30 42 29.5 42.1 29.3C42.1 29.2 42.2 29 42.2 28.9C42.2 28.7 42.2 28.6 42.1 28.5C42 28.4 41.9 28.2 41.8 28.2C41.7 28.1 41.6 28.1 41.5 28.1C41.4 28.1 41.2 28.1 41.1 28.2C40.9 28.3 40.5 28.6 40 29.1ZM60.7 29.6C61.8 29.6 62.6 29.6 63 29.7C63.4 29.7 63.9 29.8 64.2 29.8C64.5 29.9 65.1 30 65.5 30.1C65.9 30.2 66.6 30.4 67 30.5C67.4 30.7 67.9 30.9 68.2 31C68.5 31.1 69.1 31.4 69.6 31.6C70.1 31.8 70.7 32.2 71 32.4C71.4 32.5 71.9 32.9 72.3 33.1C72.7 33.4 73.3 33.8 73.7 34.1C74 34.5 74.8 35.1 75.3 35.7C75.9 36.2 76.6 37 76.9 37.4C77.2 37.8 77.6 38.4 77.9 38.7C78.1 39.1 78.5 39.7 78.7 40C78.9 40.3 79.2 40.9 79.4 41.4C79.7 41.9 80 42.6 80.1 42.8C80.2 43.1 80.4 43.7 80.5 44C80.6 44.4 80.8 45.1 80.9 45.5C81 46 81.1 46.6 81.2 46.8C81.2 47.1 81.3 47.7 81.4 48C81.4 48.3 81.5 49.3 81.5 50C81.5 50.9 81.5 51.8 81.5 52.2C81.4 52.6 81.4 53.3 81.3 53.6C81.3 53.9 81.2 54.5 81.1 54.9C81 55.3 80.8 55.9 80.7 56.4C80.6 56.9 80.3 57.6 80.2 58C80 58.4 79.8 59 79.6 59.3C79.5 59.7 79.2 60.2 79 60.6C78.8 60.9 78.5 61.5 78.3 61.8C78.1 62.1 77.8 62.5 77.6 62.8C77.4 63 77.1 63.5 76.8 63.8C76.6 64.1 75.9 64.8 75.3 65.4C74.8 66 74 66.7 73.7 66.9C73.4 67.1 73 67.5 72.7 67.7C72.4 67.9 72 68.2 71.7 68.4C71.4 68.5 70.9 68.9 70.5 69C70.2 69.2 69.6 69.5 69.3 69.7C68.9 69.8 68.3 70.1 67.9 70.2C67.5 70.4 66.8 70.6 66.3 70.8C65.9 70.9 65.2 71.1 64.8 71.1C64.4 71.2 63.8 71.3 63.5 71.4C63.2 71.4 62.6 71.5 62.2 71.5C61.7 71.6 60.9 71.6 60 71.6C59.2 71.5 58.3 71.5 57.9 71.4C57.6 71.4 57.1 71.3 56.8 71.3C56.5 71.2 55.9 71.1 55.5 71C55 70.9 54.4 70.7 54 70.6C53.6 70.4 53 70.2 52.8 70.1C52.5 70 51.9 69.7 51.4 69.5C50.9 69.3 50.2 68.9 49.9 68.7C49.6 68.6 49 68.2 48.7 68C48.3 67.7 47.7 67.3 47.3 67C46.9 66.6 46.2 66 45.6 65.4C45.1 64.9 44.4 64.1 44.1 63.7C43.8 63.3 43.3 62.7 43.1 62.4C42.8 62 42.5 61.4 42.3 61.1C42.1 60.8 41.8 60.2 41.5 59.7C41.3 59.2 41 58.5 40.9 58.3C40.8 58 40.6 57.4 40.5 57.1C40.3 56.7 40.2 56 40 55.6C39.9 55.1 39.8 54.5 39.8 54.3C39.7 54 39.6 53.4 39.6 53.1C39.5 52.8 39.5 51.8 39.5 50.9C39.5 49.7 39.5 49.2 39.5 48.5C39.6 48.1 39.7 47.4 39.7 47C39.8 46.6 39.9 46.1 40 45.7C40.1 45.4 40.2 44.8 40.3 44.5C40.4 44.1 40.7 43.5 40.8 43.1C40.9 42.7 41.2 42.1 41.3 41.8C41.5 41.4 41.8 40.9 42 40.5C42.2 40.2 42.5 39.6 42.7 39.3C42.9 39 43.2 38.6 43.3 38.3C43.5 38.1 43.9 37.6 44.1 37.3C44.4 37 44.9 36.4 45.4 35.9C45.8 35.5 46.4 34.9 46.7 34.6C47 34.4 47.5 34 47.7 33.8C48 33.6 48.5 33.3 48.8 33C49.2 32.8 49.8 32.4 50.1 32.2C50.5 32 51 31.7 51.3 31.6C51.7 31.4 52.2 31.2 52.5 31.1C52.8 30.9 53.4 30.7 53.9 30.6C54.3 30.4 55 30.2 55.4 30.1C55.9 30 56.6 29.9 56.9 29.8C57.3 29.7 58 29.7 58.3 29.6C58.9 29.6 59.5 29.5 60.7 29.6ZM43.5 30.5C43.4 30.6 42.6 31.4 41.6 32.4C40.7 33.3 40 34.1 40 34.2C40 34.2 40.2 34.5 40.6 34.8C41.1 35.3 41.2 35.4 41.2 35.3C41.3 35.3 41.8 34.6 42.5 33.9C43.2 33.2 43.9 32.4 44.2 32.1C44.4 31.9 44.6 31.6 44.7 31.4C44.8 31.2 44.8 31.1 44.8 30.9C44.8 30.7 44.7333 30.5667 44.6 30.5C44.5 30.3 44.4 30.3 44.2 30.3C44 30.3 43.8 30.3 43.8 30.3C43.7 30.3 43.6 30.4 43.5 30.5ZM60.5 50.5H40.6C40.7 52 40.7 52.7 40.8 53C40.8 53.4 40.9 54 41 54.3C41 54.6 41.2 55.1 41.2 55.5C41.3 55.8 41.5 56.3 41.6 56.7C41.7 57.1 41.9 57.7 42.1 58C42.2 58.4 42.5 59 42.7 59.4C42.9 59.8 43.2 60.3 43.3 60.6C43.5 60.8 43.8 61.4 44.1 61.7C44.3 62.1 44.7 62.6 45 63C45.3 63.3 45.8 63.9 46.3 64.4C46.7 64.8 47.4 65.5 47.7 65.8C48.1 66.1 48.6 66.5 48.9 66.7C49.2 66.9 49.7 67.2 50 67.4C50.4 67.6 51 68 51.5 68.2C51.9 68.5 52.6 68.8 53 68.9C53.4 69.1 54 69.3 54.3 69.4C54.7 69.6 55.3 69.7 55.6 69.8C55.9 69.9 56.4 70 56.7 70.1C57 70.1 57.6 70.2 58 70.3C58.4 70.3 59.1 70.4 59.6 70.4H60.5V50.5L80.4 50.6C80.3 49.1 80.2 48.4 80.2 48.1C80.1 47.7 80.1 47.1 80 46.8C79.9 46.5 79.8 46 79.7 45.6C79.7 45.3 79.5 44.8 79.4 44.4C79.3 44 79 43.4 78.9 43.1C78.7 42.7 78.5 42.1 78.3 41.7C78.1 41.3 77.8 40.8 77.6 40.5C77.5 40.3 77.1 39.7 76.9 39.4C76.7 39 76.2 38.5 76 38.1C75.7 37.8 75.1 37.2 74.7 36.7C74.3 36.3 73.6 35.6 73.2 35.3C72.9 35 72.3 34.6 72 34.4C71.8 34.2 71.3 33.9 70.9 33.7C70.6 33.5 70 33.1 69.5 32.9C69.1 32.6 68.4 32.3 68 32.2C67.6 32 67 31.8 66.6 31.7C66.2 31.5 65.7 31.4 65.4 31.3C65.1 31.2 64.6 31.1 64.2 31C63.9 31 63.3 30.9 63 30.8C62.6 30.8 61.9 30.7 61.4 30.7H60.5V50.5Z" fill="#14142B"/>
</svg>
