<svg width="40" height="40" viewBox="0 0 40 40" fill="none" xmlns="http://www.w3.org/2000/svg">
<path fill-rule="evenodd" clip-rule="evenodd" d="M28.6921 6.44561C28.2278 5.75613 27.2197 5.31713 26.4636 5.49085C25.3925 5.73593 24.7488 6.52237 24.6981 7.6495C24.6666 8.3107 24.8145 8.9315 24.9802 9.5321C24.8994 9.51325 24.8214 9.49843 24.7515 9.48631C23.3243 9.23853 21.808 9.09714 20.2452 9.06212C19.9904 9.05674 19.7356 9.05404 19.4809 9.05404C17.8181 9.05404 16.4579 9.1914 15.1992 9.48631C15.1499 9.49843 15.0855 9.51325 15.0184 9.53479C15.1143 9.19275 15.2088 8.84262 15.2622 8.47903C15.406 7.53369 15.2362 6.77823 14.7444 6.1709C14.3801 5.72112 13.8158 5.46257 13.1939 5.46257C12.4502 5.46257 11.7516 5.81942 11.3284 6.41598C10.7189 7.27379 10.4285 8.29993 10.4669 9.46746C10.5121 10.8989 10.6751 12.1742 10.9627 13.3646C11.412 15.2203 11.9831 17.1137 12.6584 18.9922C12.8323 19.4743 12.9981 19.9604 13.1638 20.4452C13.3049 20.86 13.446 21.2734 13.5925 21.6868L14.1459 23.2449V23.2355C14.5732 24.5363 15.1526 25.8722 15.8224 26.7394C15.9361 26.8862 16.0566 27.0276 16.1785 27.1703C16.4716 27.5151 16.7483 27.8396 16.8935 28.2261C16.9757 28.4402 17.1551 28.9183 17.614 29.1634C17.5784 29.3209 17.5222 29.4004 17.2935 29.4556C17.0099 29.5243 16.7278 29.5889 16.4429 29.6522C15.6252 29.8299 14.9924 30.3578 14.5061 31.2681C14.0925 32.0425 14.3445 32.9689 15.1047 33.4712C15.4266 33.6827 15.7841 33.8523 16.1963 33.9897C17.3181 34.3654 18.5166 34.5472 19.8617 34.5472C20.5068 34.5472 21.1848 34.5055 21.9368 34.4206C23.0818 34.2913 24.0228 33.9951 24.8131 33.5157C25.6788 32.9918 25.9459 32.0398 25.4637 31.1981C25.1391 30.6298 24.5803 29.8488 23.4873 29.6333C23.2681 29.5902 23.0517 29.5323 22.8353 29.4731L22.5326 29.3923C22.4819 29.3802 22.4559 29.3627 22.3915 29.162C22.4093 29.1526 22.4271 29.1432 22.4449 29.1324C22.6052 29.0408 22.6887 28.9102 22.7408 28.8132C23.0298 28.5533 23.1832 28.2423 23.3202 27.9635C23.4065 27.7925 23.4859 27.6309 23.6133 27.476C24.2831 26.6627 24.9775 25.8197 25.4364 24.7801C25.9678 23.5789 26.3431 22.2982 26.5321 21.2748C27.0841 19.784 27.6334 18.1667 28.2086 16.3299C29.0017 13.7969 29.4071 11.8133 29.5222 9.89973C29.6044 8.52751 29.3332 7.39768 28.6921 6.44561ZM25.587 11.625C25.6938 11.625 25.7897 11.5779 25.8733 11.4836C26.2965 11.0083 26.213 10.405 26.1458 9.92153L26.1198 9.73435C26.0842 9.4354 26.0253 9.13914 25.9664 8.84288C25.902 8.52642 25.8418 8.22612 25.8089 7.92178C25.7514 7.36966 25.9322 7.00472 26.3486 6.83639C26.7197 6.68691 27.1964 6.84716 27.5361 7.23365C28.1401 7.92313 28.2346 8.78363 28.2483 9.61181C28.2744 11.3719 27.9662 13.1966 27.2827 15.3566C27.2279 15.5262 27.169 15.6946 27.1142 15.8629L27.1361 15.5599C27.1663 15.1613 27.1964 14.7627 27.232 14.3654C27.258 14.084 27.1854 13.7015 26.6978 13.4767C26.2732 13.28 25.8541 13.0619 25.4514 12.8262C25.2966 12.736 25.1747 12.6364 25.0912 12.4761C25.2898 12.2445 25.4418 11.924 25.5528 11.6196C25.5651 11.621 25.5747 11.625 25.587 11.625ZM14.0454 8.80349C13.9769 9.08494 13.9057 9.37447 13.8755 9.67881C13.8454 10.006 13.8344 10.3521 13.8427 10.7682C13.8495 11.113 13.9522 11.3634 14.1454 11.5116C14.2289 11.5749 14.3166 11.6072 14.4056 11.6072C14.4138 11.6072 14.4179 11.6045 14.4248 11.6045C14.5289 11.9277 14.6782 12.2872 14.8741 12.5471C14.8056 12.6401 14.7015 12.7397 14.5357 12.834L14.4262 12.8959C14.07 13.0993 13.7317 13.2905 13.3824 13.4359C12.7168 13.712 12.762 14.2816 12.777 14.4688L12.8154 14.9792C12.8387 15.2741 12.862 15.5744 12.8866 15.8733C12.5469 14.8283 12.2387 13.7645 12.047 12.6831C11.7785 11.1588 11.5827 9.7825 11.9086 8.3793C12.0607 7.72619 12.3223 7.28584 12.7332 6.99362C13.0633 6.7593 13.3824 6.71486 13.7016 6.86299C14.0344 7.01786 14.196 7.29122 14.2097 7.72215C14.2221 8.0817 14.1358 8.43317 14.0454 8.80349Z" fill="#3E31FA"/>
</svg>
