<svg width="40" height="40" viewBox="0 0 40 40" fill="none" xmlns="http://www.w3.org/2000/svg">
<path fill-rule="evenodd" clip-rule="evenodd" d="M21.1499 19.2293C23.3021 19.2293 25.2839 15.691 25.2839 15.691C27.6994 15.691 29.5 12.6905 29.5 3.86792H25.2002V5.86632L25.054 5.98132C25.054 5.98132 22.0023 5.41675 20.0008 5.41675C17.9977 5.41675 14.9475 5.98132 14.9475 5.98132L14.8014 5.86632V3.86792H10.5C10.5 12.6905 12.3006 15.691 14.7177 15.691C14.7177 15.691 16.6979 19.2293 18.8516 19.2293V20.5212C18.8516 20.5212 19.0312 21.1754 19.0312 21.8938C19.0312 24.3448 14.0495 26.3507 14.0495 27.4723C14.0495 28.5955 14.0495 32.2607 14.0495 32.2607C14.0495 32.2607 13.089 32.4101 13.089 33.593C13.089 34.7759 16.2793 36.1321 20.0008 36.1321C23.7222 36.1321 26.911 34.7759 26.911 33.593C26.911 32.4101 25.9505 32.2607 25.9505 32.2607C25.9505 32.2607 25.9505 28.5955 25.9505 27.4723C25.9505 26.3507 20.9688 24.3448 20.9688 21.8938C20.9688 21.1754 21.1499 20.5212 21.1499 20.5212V19.2293ZM25.2834 6.98483L25.3017 6.98781L25.7842 6.60994L26.1479 6.32616V4.81317H28.5437C28.4417 11.2266 27.294 14.7424 25.2834 14.7439V6.98483ZM14.7164 14.7439C12.7057 14.7424 11.5581 11.2266 11.4561 4.81317H13.8518V6.32616L14.2156 6.60994L14.3617 6.72345L14.6981 6.98781L14.7164 6.98483V14.7439Z" fill="#3E31FA"/>
</svg>
