<svg width="120" height="100" viewBox="0 0 120 100" fill="none" xmlns="http://www.w3.org/2000/svg">
<g clip-path="url(#clip0_647_1263)">
<g clip-path="url(#clip1_647_1263)">
<path d="M58.0902 43.4901H48.4902C47.4402 43.4901 46.5402 43.8701 45.8002 44.6001C45.0102 45.3701 44.6402 46.3301 44.6502 47.4301V58.7201C44.6502 58.8734 44.5769 58.9501 44.4302 58.9501C43.2102 58.9501 41.9902 58.9501 40.7702 58.9501C40.2002 58.9501 39.6402 58.8301 39.1302 58.5701C37.7002 57.8401 36.9402 56.6601 36.9202 55.0601C36.9002 52.5001 36.9202 49.9401 36.9202 47.3801C36.9202 47.1701 36.9202 46.9701 36.8802 46.7601C36.6002 44.8401 34.8902 43.4601 33.0602 43.4801C31.8702 43.5001 30.6902 43.4801 29.5002 43.4801H29.3202C29.2202 43.4801 29.1702 43.5101 29.1802 43.6101V59.0001C29.1802 59.5301 29.2402 60.0601 29.3502 60.5801C30.1602 64.1901 33.2802 66.6801 36.9802 66.6801H44.6202C45.1302 66.6801 45.6302 66.6301 46.1302 66.5401C49.7502 65.8601 52.4102 62.6701 52.4102 58.9901V51.5401C52.4102 51.1701 52.3602 51.2101 52.7402 51.2101H67.7602C68.6502 51.2101 69.5302 51.1301 70.4002 50.9401C72.8402 50.3901 74.9202 49.2101 76.5702 47.3201C79.1802 44.3301 80.0602 40.8701 79.2202 37.0001C78.6402 34.3301 77.2102 32.1401 75.0602 30.4601C73.0402 28.8801 70.7402 28.0601 68.1802 28.0001C67.8702 27.9901 67.8902 27.9601 67.8902 28.2901V35.5901C67.8802 35.7001 67.9302 35.7501 68.0402 35.7501C68.2002 35.7501 68.3502 35.7701 68.5002 35.7901C70.0302 36.0401 71.2702 37.1701 71.6502 38.6601C72.0302 40.1701 71.4602 41.7601 70.2202 42.6901C69.4802 43.2401 68.6502 43.4801 67.7302 43.4701C64.5002 43.4701 61.2902 43.4701 58.0902 43.4701V43.4901ZM91.4102 51.2301H98.7602C99.2802 51.2301 99.7902 51.1801 100.3 51.0901C103.94 50.4101 106.6 47.1901 106.59 43.5301C106.58 40.9301 106.59 38.3201 106.59 35.7201C106.59 34.2201 106.2 32.8301 105.37 31.5801C103.85 29.3101 101.72 28.1001 98.9702 28.0301C98.2002 28.0101 97.4402 28.0301 96.6702 28.0301C96.4402 28.0301 96.2102 28.0501 95.9802 28.0901C94.2902 28.3801 92.8902 29.9601 92.8502 31.6801C92.8202 32.9801 92.8402 34.2701 92.8402 35.5701C92.8402 35.7601 92.8402 35.7701 93.0402 35.7701C93.6902 35.7701 94.3302 35.7701 94.9802 35.7701C95.2502 35.7701 95.5102 35.8001 95.7702 35.8501C97.8002 36.2801 99.1202 38.2301 98.7902 40.2601C98.5102 41.9501 97.0602 43.4701 95.0502 43.4901C92.5002 43.5201 89.9402 43.4901 87.3902 43.4901C86.3802 43.4901 85.4702 43.7601 84.7002 44.4301C83.8302 45.1901 83.3702 46.1501 83.3502 47.3001C83.3302 48.5101 83.3502 49.7201 83.3502 50.9301C83.3502 51.2601 83.3102 51.2301 83.6602 51.2301H91.4102ZM70.8902 52.6301C70.9002 52.7201 70.9602 52.7701 71.0002 52.8201C71.6102 53.6801 71.8502 54.6301 71.7002 55.6701C71.4402 57.4601 69.9202 58.8501 68.1102 58.9501C66.3802 59.0501 64.8002 58.0001 64.2202 56.3701C64.0602 55.9301 63.9902 55.4701 64.0002 55.0001V53.1401C64.0002 53.0201 63.9369 52.9601 63.8102 52.9601H56.3802C56.2902 52.9601 56.2502 53.0001 56.2602 53.0801V62.9001C56.2602 63.1201 56.2902 63.3501 56.3302 63.5601C56.7102 65.4101 58.2702 66.6801 60.1602 66.6801H67.9502C69.1902 66.6801 70.4002 66.4801 71.5702 66.0801C76.7402 64.3401 80.1302 59.1701 79.3802 53.5301C79.1602 51.8801 78.6102 50.3501 77.7302 48.9401C77.6902 48.8801 77.6702 48.8001 77.5802 48.7701C75.7302 50.7301 73.5002 52.0101 70.8902 52.6301ZM56.2502 34.8701V41.5201C56.2502 41.6734 56.3235 41.7501 56.4702 41.7501H63.7702C64.0002 41.7501 64.0002 41.7701 64.0002 41.5301C64.0002 40.9001 64.0002 40.2801 64.0002 39.6501C64.0302 38.2001 64.6602 37.0801 65.9002 36.3101C66.0802 36.2001 66.1402 36.0901 66.1402 35.8901C66.1302 33.3701 66.1402 30.8601 66.1402 28.3401V28.1601C66.1502 28.0601 66.1002 28.0201 66.0002 28.0201H56.4802C56.3269 28.0201 56.2502 28.0934 56.2502 28.2401V28.3901C56.2502 30.5601 56.2502 32.7201 56.2502 34.8701ZM106.56 49.0301C106.56 49.0301 106.53 49.0601 106.52 49.0601C106.49 49.1001 106.46 49.1401 106.42 49.1801C104.99 51.0301 103.14 52.2301 100.85 52.7501C100.26 52.8801 99.6602 52.9401 99.0602 52.9701C98.9069 52.9701 98.8302 53.0534 98.8302 53.2201V62.7501C98.8302 62.9401 98.8402 63.1301 98.8702 63.3101C99.0802 65.1101 100.62 66.6501 102.6 66.6901C103.86 66.7101 105.11 66.6901 106.37 66.6901H106.45C106.55 66.7001 106.59 66.6501 106.58 66.5501V49.2901C106.59 49.2201 106.61 49.1301 106.56 49.0301ZM44.6402 43.2801C44.7002 43.2501 44.7202 43.2401 44.7402 43.2201C45.8902 42.1901 47.2502 41.7301 48.7802 41.7501C49.8802 41.7501 50.9802 41.7501 52.0802 41.7501H52.2602C52.3502 41.7501 52.3802 41.7101 52.3802 41.6301V31.8301C52.3802 31.2901 52.2702 30.7701 52.0302 30.2901C51.3102 28.8301 50.1302 28.0601 48.5002 28.0301C47.3202 28.0101 46.1402 28.0201 44.9602 28.0301C44.5802 28.0301 44.6302 27.9901 44.6302 28.3501V42.9901C44.6402 43.0801 44.6402 43.1601 44.6402 43.2801ZM36.8902 43.2501C36.8902 43.2501 36.8902 43.1901 36.8902 43.1601V28.2401C36.8902 28.0301 36.8902 28.0201 36.6602 28.0201H33.0202C32.7402 28.0201 32.4702 28.0501 32.2002 28.1101C30.3802 28.5201 29.1502 30.0601 29.1502 31.9201V41.4801C29.1502 41.7801 29.1202 41.7501 29.4302 41.7501H32.8902C34.3602 41.7501 35.6602 42.2101 36.7602 43.1901C36.7902 43.2101 36.8102 43.2601 36.8802 43.2501H36.8902ZM83.3602 59.8401V66.6001C83.3602 66.6801 83.4002 66.7101 83.4702 66.7101H87.2602C87.5202 66.7101 87.7702 66.6801 88.0302 66.6301C89.8902 66.2401 91.1202 64.5701 91.1102 62.8101C91.0902 59.6301 91.1102 56.4501 91.1002 53.2701C91.1002 52.9501 91.1402 52.9801 90.8102 52.9801H83.4902C83.3902 52.9801 83.3502 53.0201 83.3602 53.1201V59.8401ZM92.6602 28.0301H91.1602C90.6202 28.0301 90.0802 28.0801 89.5502 28.1901C86.1302 28.8801 83.4202 31.8801 83.3702 35.6401C83.3402 38.1301 83.3602 40.6201 83.3702 43.1101C83.3702 43.1601 83.3402 43.2301 83.4202 43.2701C83.4502 43.2401 83.4902 43.2201 83.5202 43.1901C84.6302 42.2201 85.9302 41.7601 87.4002 41.7601C88.5402 41.7601 89.6702 41.7601 90.8102 41.7601C91.1702 41.7601 91.1302 41.8001 91.1302 41.4501V31.8901C91.1302 30.9101 91.3802 29.9901 91.8602 29.1301C92.0502 28.7501 92.3202 28.4001 92.6602 28.0301ZM67.0902 52.8901H65.9802C65.8402 52.8901 65.7702 52.9601 65.7702 53.1001C65.7702 53.7401 65.7602 54.3901 65.7702 55.0301C65.7802 56.3701 66.9802 57.3501 68.3002 57.1101C69.3102 56.9301 70.0402 56.0401 70.0402 55.0101C70.0402 53.9801 69.2902 53.1001 68.2802 52.9301C67.8502 52.8601 67.4302 52.9101 67.0902 52.8901Z" fill="#14142B"/>
<path d="M2 28.03C2.2 28.03 2.39 28.02 2.59 28.02H17.48C19.77 28.02 21.71 28.86 23.26 30.53C24.38 31.74 25.03 33.17 25.24 34.81C25.28 35.14 25.29 35.48 25.29 35.81C25.29 43.51 25.28 51.2 25.3 58.9C25.31 62.22 23.22 65.17 20.11 66.26C19.31 66.54 18.48 66.69 17.63 66.69H2C2 53.81 2 40.92 2 28.03ZM9.81 47.35V58.77C9.81 58.96 9.81 58.97 10.01 58.97C11.27 58.97 12.52 58.99 13.78 58.97C15.07 58.94 16.09 58.37 16.85 57.33C17.36 56.62 17.56 55.82 17.56 54.95C17.55 49.9 17.56 44.85 17.56 39.8V39.52C17.56 39.15 17.49 38.79 17.37 38.43C16.85 36.85 15.4 35.79 13.72 35.78C12.53 35.78 11.35 35.78 10.16 35.78C9.78 35.78 9.83 35.74 9.83 36.1C9.81 39.85 9.81 43.61 9.81 47.36V47.35Z" fill="#14142B"/>
<path d="M118.19 63.2498C118.19 63.2498 118.15 63.3198 118.15 63.3698C117.93 64.9198 117.05 65.9398 115.61 66.4898C115.21 66.6498 114.78 66.7098 114.35 66.7098H110.58C110.5 66.7098 110.45 66.6798 110.46 66.5898V31.9898C110.46 30.1698 111.6 28.6498 113.31 28.1798C113.57 28.1098 113.83 28.0498 114.1 28.0498H118.2C118.2 39.7698 118.2 51.5098 118.2 63.2498H118.19Z" fill="#14142B"/>
<path d="M37.4602 72.47C37.3602 72.39 37.2302 72.37 37.1202 72.33C36.2402 72.02 35.6702 71.24 35.6602 70.32V68.41C35.6602 68.2633 35.7368 68.19 35.8902 68.19C36.5302 68.19 37.1802 68.18 37.8202 68.19C38.6702 68.2 39.3002 68.6 39.6902 69.35C40.0802 70.11 40.0102 70.87 39.5202 71.56C39.2102 71.99 38.8002 72.29 38.2502 72.37C38.1902 72.38 38.1502 72.4 38.1802 72.47C37.9502 72.47 37.7102 72.47 37.4602 72.47Z" fill="#14142B"/>
<path d="M43.1401 72.4702C43.1201 72.3702 43.0301 72.3902 42.9601 72.3702C42.1001 72.1002 41.5801 71.5302 41.4101 70.6502C41.3901 70.5702 41.3901 70.4802 41.3901 70.3902V68.3802C41.3901 68.2469 41.4568 68.1802 41.5901 68.1802C42.2801 68.1802 42.9601 68.1702 43.6501 68.1802C44.6301 68.2002 45.5001 69.0202 45.6301 69.9902C45.7801 71.0602 45.1301 71.9902 44.2601 72.3002C44.1701 72.3302 44.0801 72.3702 43.9901 72.3702C43.9301 72.3702 43.8901 72.4002 43.9201 72.4702C43.6601 72.4702 43.4001 72.4702 43.1401 72.4702Z" fill="#14142B"/>
<path d="M58.0899 43.4898H67.7199C68.6299 43.4898 69.4699 43.2598 70.2099 42.7098C71.4599 41.7798 72.0199 40.1898 71.6399 38.6798C71.2699 37.1898 70.0199 36.0598 68.4899 35.8098C68.3399 35.7898 68.1799 35.7598 68.0299 35.7698C67.9199 35.7698 67.8699 35.7198 67.8799 35.6098V28.3098C67.8799 27.9898 67.8599 28.0198 68.1699 28.0198C70.7299 28.0798 73.0299 28.8998 75.0399 30.4698C77.1899 32.1598 78.6199 34.3398 79.1999 37.0098C80.0399 40.8698 79.1499 44.3398 76.5499 47.3298C74.9099 49.2098 72.8199 50.3998 70.3799 50.9498C69.5099 51.1498 68.6299 51.2198 67.7399 51.2198H52.7199C52.3399 51.2198 52.3899 51.1798 52.3899 51.5498V58.9998C52.3899 62.6698 49.7299 65.8698 46.1099 66.5498C45.6099 66.6398 45.1099 66.6898 44.5999 66.6898H36.9599C33.2599 66.6898 30.1399 64.1998 29.3299 60.5898C29.2099 60.0698 29.1599 59.5398 29.1599 59.0098V43.6198C29.1499 43.5198 29.1999 43.4798 29.2999 43.4898H29.4799C30.6699 43.4898 31.8499 43.4898 33.0399 43.4898C34.8699 43.4698 36.5799 44.8498 36.8599 46.7698C36.8899 46.9798 36.8999 47.1798 36.8999 47.3898C36.8999 49.9498 36.8799 52.5098 36.8999 55.0698C36.9199 56.6698 37.6799 57.8498 39.1099 58.5798C39.6199 58.8398 40.1799 58.9598 40.7499 58.9598C41.9699 58.9598 43.1899 58.9598 44.4099 58.9598C44.5566 58.9598 44.6299 58.8831 44.6299 58.7298V47.4398C44.6299 46.3398 44.9999 45.3798 45.7799 44.6098C46.5199 43.8798 47.4199 43.4998 48.4699 43.4998C51.6799 43.4998 54.8799 43.4998 58.0799 43.4998L58.0899 43.4898Z" fill="#14142B"/>
<path d="M91.4099 51.2299H83.6699C83.3299 51.2299 83.3599 51.2699 83.3599 50.9299C83.3599 49.7199 83.3499 48.5099 83.3599 47.2999C83.3799 46.1499 83.8299 45.1799 84.7099 44.4299C85.4799 43.7599 86.3799 43.4899 87.3999 43.4899C89.9499 43.4899 92.5099 43.5199 95.0599 43.4899C97.0699 43.4699 98.5199 41.9499 98.7999 40.2599C99.1299 38.2299 97.8099 36.2799 95.7799 35.8499C95.5199 35.7899 95.2499 35.7699 94.9899 35.7699H93.0499C92.9166 35.7699 92.8499 35.7032 92.8499 35.5699C92.8499 34.2699 92.8299 32.9799 92.8599 31.6799C92.8899 29.9699 94.2899 28.3799 95.9899 28.0899C96.2199 28.0499 96.4499 28.0299 96.6799 28.0299C97.4499 28.0299 98.2099 28.0099 98.9799 28.0299C101.73 28.0999 103.86 29.3099 105.38 31.5799C106.21 32.8199 106.6 34.2199 106.6 35.7199C106.6 38.3199 106.59 40.9299 106.6 43.5299C106.61 47.1899 103.95 50.4099 100.31 51.0899C99.7999 51.1799 99.2899 51.2299 98.7699 51.2299C96.3099 51.2299 93.8599 51.2299 91.4099 51.2299Z" fill="#14142B"/>
<path d="M70.8898 52.63C73.4998 52.01 75.7298 50.73 77.5798 48.79C77.6698 48.82 77.6898 48.9 77.7298 48.96C78.6098 50.37 79.1598 51.9 79.3798 53.55C80.1298 59.19 76.7398 64.36 71.5698 66.1C70.3998 66.49 69.1898 66.7 67.9498 66.7H60.1598C58.2698 66.7 56.7098 65.43 56.3298 63.58C56.2798 63.36 56.2598 63.14 56.2598 62.92V53.1C56.2598 53.01 56.2998 52.97 56.3798 52.98H63.8098C63.9898 52.98 63.9998 52.98 63.9998 53.16V55.02C63.9998 55.49 64.0698 55.94 64.2198 56.39C64.7898 58.01 66.3798 59.06 68.1098 58.97C69.9098 58.87 71.4398 57.47 71.6998 55.69C71.8498 54.65 71.6098 53.7 70.9998 52.84C70.9598 52.77 70.8998 52.72 70.8898 52.63Z" fill="#14142B"/>
<path d="M56.25 34.8701V28.2501C56.25 28.1034 56.3267 28.0301 56.48 28.0301H66C66.1 28.0201 66.14 28.0701 66.14 28.1701V35.9001C66.14 36.1101 66.08 36.2101 65.9 36.3201C64.66 37.0801 64.03 38.2001 64 39.6601C64 40.2901 64 40.9101 64 41.5401C64 41.7801 64 41.7601 63.77 41.7601H56.47C56.3233 41.7601 56.25 41.6834 56.25 41.5301C56.25 39.3101 56.25 37.0901 56.25 34.8701Z" fill="#14142B"/>
<path d="M106.56 49.0298C106.61 49.1298 106.59 49.2198 106.59 49.2998V66.5598C106.6 66.6598 106.56 66.7098 106.46 66.6998H106.38C105.12 66.6998 103.87 66.7198 102.61 66.6998C100.62 66.6598 99.0798 65.1198 98.8798 63.3198C98.8598 63.1298 98.8398 62.9398 98.8398 62.7598V53.2298C98.8398 53.0698 98.9165 52.9865 99.0698 52.9798C99.6698 52.9498 100.27 52.8998 100.86 52.7598C103.15 52.2398 105 51.0398 106.43 49.1898C106.46 49.1498 106.49 49.1098 106.53 49.0698C106.53 49.0498 106.53 49.0498 106.56 49.0298Z" fill="#14142B"/>
<path d="M44.6399 43.2799V28.3499C44.6399 27.9799 44.5899 28.0299 44.9699 28.0299C46.1499 28.0299 47.3299 28.0099 48.5099 28.0299C50.1399 28.0599 51.3199 28.8299 52.0399 30.2899C52.2799 30.7699 52.3899 31.2899 52.3899 31.8299V41.6299C52.3899 41.7199 52.3599 41.7599 52.2699 41.7499H52.0899C50.9899 41.7499 49.8899 41.7499 48.7899 41.7499C47.2499 41.7299 45.8999 42.1899 44.7499 43.2199C44.7199 43.2399 44.6999 43.2499 44.6399 43.2799Z" fill="#14142B"/>
<path d="M36.8902 43.25C36.8202 43.25 36.7902 43.21 36.7602 43.19C35.6502 42.21 34.3602 41.75 32.8902 41.75H29.4302C29.1202 41.75 29.1502 41.77 29.1502 41.48V31.92C29.1502 30.06 30.3902 28.53 32.2002 28.11C32.4702 28.05 32.7402 28.02 33.0202 28.02H36.6602C36.8135 28.02 36.8902 28.0934 36.8902 28.24V43.16C36.8902 43.16 36.8902 43.21 36.8902 43.25Z" fill="#14142B"/>
<path d="M83.3599 59.84V53.11C83.3499 53.01 83.3899 52.96 83.4899 52.97H90.8099C91.1299 52.97 91.0999 52.94 91.0999 53.26C91.0999 56.44 91.0899 59.62 91.1099 62.8C91.1199 64.56 89.8999 66.22 88.0299 66.62C87.7799 66.67 87.5199 66.7 87.2599 66.7H83.4699C83.3999 66.7 83.3599 66.67 83.3599 66.59V59.84Z" fill="#14142B"/>
<path d="M92.6598 28.0298C92.3198 28.4098 92.0598 28.7498 91.8398 29.1398C91.3598 29.9998 91.1098 30.9098 91.1098 31.8998V41.4598C91.1098 41.8098 91.1498 41.7698 90.7898 41.7698H87.3798C85.9098 41.7698 84.6098 42.2298 83.4998 43.1998C83.4698 43.2298 83.4298 43.2498 83.3998 43.2798C83.3198 43.2398 83.3498 43.1698 83.3498 43.1198C83.3498 40.6298 83.3198 38.1398 83.3498 35.6498C83.3998 31.8998 86.1098 28.8998 89.5298 28.1998C90.0598 28.0898 90.5998 28.0398 91.1398 28.0398C91.6398 28.0298 92.1198 28.0298 92.6598 28.0298Z" fill="#14142B"/>
<path d="M67.0901 52.8902C67.4401 52.9102 67.8601 52.8502 68.2801 52.9302C69.2901 53.1002 70.0401 53.9902 70.0401 55.0102C70.0401 56.0302 69.3101 56.9302 68.3001 57.1102C66.9801 57.3502 65.7801 56.3702 65.7701 55.0302C65.7601 54.3902 65.7701 53.7402 65.7701 53.1002C65.7701 52.9602 65.8401 52.8902 65.9801 52.8902C66.3201 52.8902 66.6701 52.8902 67.0901 52.8902Z" fill="#14142B"/>
</g>
</g>
<defs>
<clipPath id="clip0_647_1263">
<rect width="120" height="100" fill="white"/>
</clipPath>
<clipPath id="clip1_647_1263">
<rect width="116.2" height="44.47" fill="white" transform="translate(2 28)"/>
</clipPath>
</defs>
</svg>
