<svg width="120" height="100" viewBox="0 0 120 100" fill="none" xmlns="http://www.w3.org/2000/svg">
<path d="M65.4287 56.8516H63.2402V59.5555H65.4287C65.622 59.5555 65.7825 59.4852 65.9032 59.3458C66.0238 59.2005 66.0824 59.0166 66.0824 58.7916V57.6271C66.0824 57.4022 66.025 57.2171 65.9032 57.0706C65.7825 56.923 65.622 56.8516 65.4287 56.8516Z" fill="#14142B"/>
<path d="M57.1896 56.8516H55.5869C55.3784 56.8516 55.2179 56.923 55.0914 57.0706C54.9707 57.2171 54.9121 57.4022 54.9121 57.6271V62.4738C54.9121 62.694 54.9695 62.8768 55.0914 63.0244C55.2167 63.1767 55.3772 63.2564 55.5869 63.2564H57.1896C57.3829 63.2564 57.5457 63.1779 57.6688 63.0244C57.7988 62.8768 57.8621 62.694 57.8621 62.4738V57.6271C57.8621 57.4022 57.8 57.2171 57.6688 57.0706C57.5457 56.923 57.3829 56.8516 57.1896 56.8516Z" fill="#14142B"/>
<path d="M49.1771 56.8516H46.8984V59.7839H49.1771C49.3704 59.7839 49.5356 59.709 49.6586 59.5649C49.784 59.4161 49.8496 59.2345 49.8496 59.006V57.6271C49.8496 57.3975 49.784 57.2171 49.6586 57.0706C49.5356 56.923 49.3704 56.8516 49.1771 56.8516Z" fill="#14142B"/>
<path d="M60 15C40.6695 15 25 30.6694 25 49.9998C25 69.3303 40.6695 84.9997 60 84.9997C79.3305 84.9997 95 69.3303 95 49.9998C95 30.6694 79.3305 15 60 15ZM46.9197 31.1978H64.9111L62.1545 35.5629L44.1689 35.5735L46.9197 31.1978ZM43.2691 62.7626C43.2691 63.3226 43.0758 63.7994 42.6904 64.1861C42.3003 64.5797 41.8199 64.7777 41.2716 64.7777H38.8981C38.3346 64.7777 37.8636 64.5891 37.4864 64.213C37.1079 63.8358 36.9217 63.3707 36.9217 62.7978V61.8594H38.3791L38.5935 62.7287C38.6907 63.086 38.9379 63.2711 39.3421 63.2711H40.9471C41.1474 63.2711 41.3103 63.1996 41.438 63.0485C41.5563 62.9044 41.6172 62.7134 41.6172 62.4955V61.4622C41.6172 60.9549 41.3935 60.696 40.9471 60.696H38.9309C38.3803 60.696 37.9011 60.5039 37.5039 60.1103C37.1185 59.7154 36.9228 59.241 36.9228 58.6845V57.3196C36.9228 56.7725 37.1173 56.3027 37.5039 55.9126C37.9011 55.519 38.3803 55.3245 38.9309 55.3245H41.2728C41.8211 55.3245 42.2909 55.5119 42.6775 55.8868C43.0582 56.2653 43.2445 56.7304 43.2445 57.2962V58.1444H41.7965L41.5774 57.3747C41.4638 57.008 41.2107 56.8288 40.8382 56.8288H39.2566C39.0504 56.8288 38.8864 56.9014 38.7657 57.0502C38.6356 57.199 38.5794 57.3829 38.5794 57.6102V58.4057C38.5794 58.9012 38.8032 59.1496 39.2566 59.1496H41.2728C41.8176 59.1496 42.2897 59.3488 42.681 59.7482C43.0758 60.1477 43.2691 60.6164 43.2691 61.1635V62.7626ZM51.5215 59.2995C51.5215 59.8549 51.3235 60.327 50.9357 60.7183C50.5362 61.1084 50.0571 61.3064 49.5041 61.3064H46.8997V64.7753H45.2303V55.3222H49.5041C50.0571 55.3233 50.5351 55.5178 50.9357 55.9114C51.3235 56.2981 51.5215 56.7702 51.5215 57.3138V59.2995ZM59.5302 62.7474C59.5302 63.3226 59.3392 63.7983 58.9374 64.1861C58.5426 64.5797 58.0775 64.7777 57.514 64.7777H55.2564C54.6941 64.7777 54.2172 64.5797 53.8248 64.1861C53.4335 63.7994 53.2343 63.3226 53.2343 62.7474V57.3138C53.2343 56.7714 53.4346 56.2981 53.8248 55.9114C54.2172 55.5178 54.6941 55.3233 55.2564 55.3233H57.514C58.0775 55.3233 58.5426 55.5178 58.9374 55.9056C59.3404 56.2863 59.5302 56.7655 59.5302 57.3138V62.7474ZM59.9473 53.0728L37.1618 53.0775L42.7033 44.3214H38.6357L41.4028 39.9457H58.3493L55.5798 44.3214H47.9823L45.1752 48.7018H57.4074L68.5898 31.0455L82.5113 53.0716H77.2581L74.4932 48.6994H66.2631L69.0303 44.3155H71.7272L68.591 39.3447L59.9473 53.0728ZM66.3638 64.7765L64.8244 61.0768H63.2382V64.7765H61.5664V55.3233H65.7453C66.3053 55.3233 66.7798 55.5178 67.1687 55.9114C67.5588 56.2981 67.7568 56.7714 67.7568 57.3138V58.9621C67.7568 59.3898 67.6385 59.7822 67.403 60.1267C67.1582 60.4676 66.8465 60.7101 66.4834 60.8706L68.1411 64.7765H66.3638ZM75.3121 56.8498H72.887V64.7777H71.2141V56.8498H68.8112H68.81V55.3233H75.3121V56.8498ZM82.8897 62.7626C82.8897 63.3226 82.6952 63.7994 82.3063 64.1861C81.9103 64.5797 81.4358 64.7777 80.8758 64.7777H78.5105C77.9446 64.7777 77.4795 64.5891 77.0964 64.213C76.7192 63.8358 76.5282 63.3707 76.5282 62.7978V61.8594H77.9844L78.2023 62.7287C78.3054 63.086 78.5491 63.2711 78.9521 63.2711H80.5536C80.7563 63.2711 80.9239 63.1996 81.0469 63.0485C81.1664 62.9044 81.2261 62.7134 81.2261 62.4955V61.4622C81.2261 60.9549 81.0059 60.696 80.5548 60.696H78.5409C77.9844 60.696 77.5053 60.5039 77.1198 60.1103C76.7321 59.7154 76.5294 59.241 76.5294 58.6845V57.3196C76.5294 56.7725 76.7321 56.3027 77.1198 55.9126C77.5053 55.519 77.9844 55.3245 78.5409 55.3245H80.8758C81.4358 55.3245 81.9009 55.5119 82.2875 55.8868C82.6659 56.2653 82.8592 56.7304 82.8592 57.2962V58.1444H81.4065L81.1874 57.3747C81.0715 57.008 80.8231 56.8288 80.4505 56.8288H78.8643C78.6616 56.8288 78.4917 56.9014 78.3734 57.0502C78.2516 57.199 78.1895 57.3829 78.1895 57.6102V58.4057C78.1895 58.9012 78.4179 59.1496 78.8643 59.1496H80.8758C81.4264 59.1496 81.8986 59.3488 82.2875 59.7482C82.6941 60.1477 82.8897 60.6164 82.8897 61.1635V62.7626ZM83.9101 55.7908H83.554V56.5488H83.3747V55.7908H83.0186V55.6338H83.0197H83.9101V55.7908ZM84.9739 56.5488V55.9841C84.9739 55.9595 84.9739 55.9302 84.9786 55.8845C84.9622 55.9208 84.9575 55.9524 84.9341 55.9841L84.6435 56.4328H84.6154L84.3178 55.9759C84.3014 55.9513 84.2803 55.9161 84.2616 55.8845C84.2616 55.9208 84.2803 55.9513 84.2803 55.9841V56.5488H84.1269V55.6338H84.2803L84.6388 56.1868L84.9997 55.6338H85.1391V56.5488H84.9739Z" fill="#14142B"/>
</svg>
