<svg width="40" height="40" viewBox="0 0 40 40" fill="none" xmlns="http://www.w3.org/2000/svg">
<path d="M22.7301 29.1145C22.7301 29.1145 22.0586 27.8675 22.0586 26.543C22.0586 25.2185 22.8408 24.0822 22.8408 24.0822C22.8408 24.0822 27.6 20.3413 27.6 13.6304C27.6 8.66087 25.8476 6.42883 25.8476 6.42883V4.45135H14.1524V6.42514C14.1524 6.42514 12.4 8.65718 12.4 13.6267C12.4 20.3376 17.1592 24.0785 17.1592 24.0785C17.1592 24.0785 17.9414 25.2148 17.9414 26.5393C17.9414 27.8638 17.2699 29.1108 17.2699 29.1108C17.2699 29.1108 16.7681 29.2436 16.6243 29.4281C16.4804 29.6125 15.9159 34.4123 15.9159 34.4123C15.9159 34.4123 16.7165 35.5486 20.0037 35.5486C23.2909 35.5486 24.0915 34.4123 24.0915 34.4123C24.0915 34.4123 23.527 29.6125 23.3831 29.4281C23.2392 29.2436 22.7375 29.1108 22.7375 29.1108L22.7301 29.1145ZM14.1524 18.1424C13.1415 14.003 14.407 12.4756 14.407 12.4756C14.407 12.4756 14.8239 16.058 15.6429 18.515C16.4619 20.9758 18.3582 23.6174 18.3582 23.6174C18.3582 23.6174 15.167 22.2818 14.1561 18.1424H14.1524ZM24.3571 18.5187C25.1761 16.058 25.593 12.4793 25.593 12.4793C25.593 12.4793 26.8584 14.0067 25.8476 18.1461C24.8367 22.2855 21.6454 23.6211 21.6454 23.6211C21.6454 23.6211 23.5417 20.9795 24.3608 18.5187H24.3571Z" fill="#3E31FA"/>
</svg>
