<svg width="40" height="40" viewBox="0 0 40 40" fill="none" xmlns="http://www.w3.org/2000/svg">
<path fill-rule="evenodd" clip-rule="evenodd" d="M20 35.8824C16.6874 35.8824 14 35.2162 14 34.7501C14 34.7192 14.0132 34.6898 14.0368 34.6589L15.7931 30.2035C15.7931 30.1049 15.9667 30.0108 16.2726 29.93C17.0169 28.1728 20.9914 17.6943 14.5222 7.61585L14.962 7.16736C14.962 7.16736 15.4533 7.82024 16.0785 9.04219C16.0226 8.77163 15.9931 8.49077 15.9931 8.20256C15.9931 5.94689 17.7862 4.11765 19.9941 4.11765C22.0049 4.11765 23.6715 5.63515 23.9524 7.61144L23.973 7.62614C24.0275 7.51292 24.0583 7.4541 24.0583 7.4541L24.657 6.84386C25.2013 7.1306 25.4013 7.60409 25.4013 7.60409C18.6158 18.5163 23.0375 28.1713 24.0069 30.0226C24.1363 30.0799 24.2069 30.1402 24.2069 30.2035L25.9647 34.6589C25.9868 34.6898 26 34.7192 26 34.7501C26 35.2162 23.314 35.8824 20 35.8824ZM19.7651 12.2837C18.581 12.2146 17.5351 11.6205 16.8453 10.725C18.403 14.5482 19.921 21.2476 16.96 29.7968C17.5086 29.7159 18.2176 29.6571 19.0134 29.6306C19.362 27.4514 19.9754 22.1019 19.7651 12.2837Z" fill="#3E31FA"/>
</svg>
