<svg width="120" height="100" viewBox="0 0 120 100" fill="none" xmlns="http://www.w3.org/2000/svg">
<path d="M60 80C59.7 80 59.4 80 59.1 80L65.2 63.2H73.6C75.1 63.2 76.7 62 77.2 60.7L83.9 42.4C85 39.4 83.3 37 80.1 37H68.4L58.6 64L53 79.3C39.8 76 30 64.2 30 50C30 36.2 39.2 24.7 51.9 21.1L46.1 36.9L36.5 63.2H43L51.1 40.9H55.9L47.8 63.2H54.2L61.8 42.4C62.9 39.4 61.2 37 58 37H52.7L58.7 20C59.1 20 59.6 20 60 20C76.6 20 90 33.4 90 50C90 66.6 76.6 80 60 80ZM78.2 40.8H73.4L66.7 59.2H71.5L78.2 40.8Z" fill="#14142B"/>
</svg>
