<svg width="40" height="40" viewBox="0 0 40 40" fill="none" xmlns="http://www.w3.org/2000/svg">
<path fill-rule="evenodd" clip-rule="evenodd" d="M26.3345 5.45868C26.281 5.2332 26.2359 5.04436 26.1922 4.85834C25.6214 4.83156 25.0788 4.80619 24.5362 4.77942C23.0239 4.77942 16.9747 4.77942 15.4624 4.77942C14.9212 4.80619 14.3786 4.83156 13.8078 4.85834C13.7627 5.04436 13.7176 5.2332 13.664 5.45868C11.9502 5.45868 10.2336 5.45868 8.5 5.45868C8.70295 6.1478 8.91295 6.79183 9.07926 7.44713C9.51759 9.18191 9.88826 10.9364 10.3731 12.6571C11.1976 15.5855 13.0383 17.8192 15.2623 19.7569C15.8754 20.291 16.5519 20.7504 17.22 21.2155C17.4384 21.3677 17.5737 21.5058 17.5441 21.789C17.5202 22.0145 17.5624 22.2485 17.5328 22.4725C17.4793 22.8939 17.5808 23.1729 18.0896 23.1645C17.7414 24.2313 17.1636 25.0035 16.0868 25.3122C15.5287 25.4714 14.9776 25.6617 14.4293 25.8575C13.7345 26.107 13.3737 26.6214 13.3469 27.3626C13.3004 28.6436 13.2539 29.9246 13.2088 31.2056C13.1989 31.472 13.2426 31.7426 12.941 31.9131C12.8508 31.9624 12.841 32.1583 12.7846 32.3133C12.4816 32.3598 12.1658 32.4345 11.8473 32.4486C11.5161 32.4641 11.3047 32.5487 11.3893 32.9531C11.2117 33.0109 11.0538 33.0616 10.8734 33.1208C10.8734 33.4379 10.8734 33.7592 10.8734 34.1524C11.7952 34.3328 14.6844 35.2206 19.9993 35.2206C25.3156 35.2206 28.2034 34.3328 29.1266 34.1524C29.1266 33.7592 29.1266 33.4379 29.1266 33.1208C28.9462 33.0616 28.7883 33.0109 28.6107 32.9531C28.6953 32.5487 28.4839 32.4641 28.1513 32.4486C27.8327 32.4345 27.5184 32.3598 27.214 32.3133C27.159 32.1583 27.1478 31.9624 27.059 31.9131C26.7574 31.7426 26.7997 31.472 26.7912 31.2056C26.7447 29.9246 26.6996 28.6436 26.6531 27.3626C26.6249 26.6214 26.2655 26.107 25.5692 25.8575C25.0224 25.6617 24.4713 25.4714 23.9132 25.3122C22.835 25.0035 22.2586 24.2313 21.9104 23.1645C22.4178 23.1729 22.5207 22.8939 22.4657 22.4725C22.4376 22.2485 22.4798 22.0145 22.4559 21.789C22.4263 21.5058 22.5602 21.3677 22.78 21.2155C23.4467 20.7504 24.1246 20.291 24.7377 19.7569C26.9603 17.8192 28.8024 15.5855 29.6269 12.6571C30.1117 10.9364 30.4824 9.18191 30.9207 7.44713C31.0856 6.79183 31.297 6.1478 31.5 5.45868C29.765 5.45868 28.0498 5.45868 26.3345 5.45868ZM17.5323 20.6993C17.2025 20.4879 16.9319 20.3667 16.7233 20.1751C14.7516 18.3754 13.2153 16.2475 12.3359 13.701C11.6438 11.69 10.9913 9.65079 10.9279 7.48478C10.9251 7.40022 10.9279 7.31567 10.9279 7.19025C11.8172 7.19025 12.6643 7.19025 13.5592 7.19025C13.5592 7.40727 13.579 7.60316 13.5564 7.79481C13.4169 8.99127 13.679 10.1468 13.8932 11.3067C14.0525 12.1748 14.5486 12.8695 15.0786 13.5375C16.0229 14.7283 16.7318 16.0431 17.0729 17.5398C17.18 18.009 17.2053 18.4981 17.2786 18.9758C17.3406 19.3802 17.2138 19.8213 17.5225 20.1863C17.5887 20.2638 17.5323 20.4485 17.5323 20.6993ZM29.0714 7.48478C29.0066 9.65079 28.3554 11.69 27.662 13.701C26.7839 16.2475 25.2463 18.3754 23.276 20.1751C23.0674 20.3667 22.7968 20.4879 22.467 20.6993C22.467 20.4485 22.4106 20.2638 22.4754 20.1863C22.7855 19.8213 22.6586 19.3802 22.7206 18.9758C22.7925 18.4981 22.8193 18.009 22.9264 17.5398C23.2675 16.0431 23.975 14.7283 24.9193 13.5375C25.4507 12.8695 25.9468 12.1748 26.106 11.3067C26.3188 10.1468 26.5824 8.99127 26.4429 7.79481C26.4203 7.60316 26.4401 7.40727 26.4401 7.19025C27.3336 7.19025 28.1821 7.19025 29.0714 7.19025C29.0714 7.31567 29.0742 7.40022 29.0714 7.48478Z" fill="#3E31FA"/>
</svg>
