<svg width="120" height="100" viewBox="0 0 120 100" fill="none" xmlns="http://www.w3.org/2000/svg">
<path d="M119.77 44H118.23L118 44.23V51.53L110.23 43.77L110 44V55.77L110.23 56H111.77L112 55.77V48.37L119.63 56H120V44.23L119.77 44Z" fill="#14142B"/>
<path d="M81.33 44.23V46H83.33V56H85.33V46H87.1L87.33 45.77V44H81.57L81.33 44.23Z" fill="#14142B"/>
<path d="M88.67 44.23V46H90.67V56H92.67V46H94.43L94.67 45.77V44H88.9L88.67 44.23Z" fill="#14142B"/>
<path d="M2 44H0.23L0 44.23V56H6V54H2V44Z" fill="#14142B"/>
<path d="M13.33 44C10.02 44 7.33 46.69 7.33 50C7.33 53.31 10.02 56 13.33 56C16.64 56 19.33 53.31 19.33 50C19.33 46.69 16.64 44 13.33 44ZM13.33 54C11.12 54 9.33 52.21 9.33 50C9.33 47.79 11.12 46 13.33 46C15.54 46 17.33 47.79 17.33 50C17.33 52.21 15.54 54 13.33 54Z" fill="#14142B"/>
<path d="M102 44C98.69 44 96 46.69 96 50C96 53.31 98.69 56 102 56C105.31 56 108 53.31 108 50C108 46.69 105.31 44 102 44ZM102 54C99.79 54 98 52.21 98 50C98 47.79 99.79 46 102 46C104.21 46 106 47.79 106 50C106 52.21 104.21 54 102 54Z" fill="#14142B"/>
<path d="M28.23 44L28 44.23V52C28 53.1 27.1 54 26 54C24.9 54 24 53.1 24 52V44.23L23.77 44H22.24L22.01 44.23V52C22.01 54.21 23.8 56 26.01 56C28.22 56 30.01 54.21 30.01 52V44.23L29.78 44H28.25H28.23Z" fill="#14142B"/>
<path d="M34 44.23V56H35.77L36 55.77V44H34.23L34 44.23Z" fill="#14142B"/>
<path d="M70.23 44L70 44.23V52C70 53.1 69.1 54 68 54C66.9 54 66 53.1 66 52V44.23L65.77 44H64.24L64.01 44.23V52C64.01 54.21 65.8 56 68.01 56C70.22 56 72.01 54.21 72.01 52V44.23L71.78 44H70.25H70.23Z" fill="#14142B"/>
<path d="M76 44.23V56H77.77L78 55.77V44H76.23L76 44.23Z" fill="#14142B"/>
<path d="M43.5 49.08C42.85 48.72 42.65 48.59 42.17 48.28C41.72 47.99 41.47 47.65 41.5 47.11C41.54 46.39 42.18 45.83 42.87 45.83C43.45 45.83 43.98 46.15 44.22 46.66H44.59L45.76 45.49C45.15 44.6 44.04 43.99 42.88 43.99C41.72 43.99 41.01 44.37 40.48 44.86C39.79 45.49 39.36 46.39 39.36 47.33C39.36 48.58 40.06 49.63 40.73 50.01C41.38 50.39 42.86 51.21 42.86 51.21C43.68 51.6 43.81 52.37 43.71 52.88C43.58 53.53 42.92 54.18 41.93 54.05C41.44 53.98 40.93 53.62 40.7 53.43L40.18 53L38.68 54.53C39.37 55.34 40.01 55.74 41.06 56C41.43 56.09 41.93 56.12 42.21 56.12C44.36 56.12 46.03 54.26 46.03 52.27C46.03 50.28 44.23 49.48 43.51 49.09L43.5 49.08Z" fill="#14142B"/>
<path d="M56.8 51.32L53.77 44H51.6L56.57 56L56.8 56.23L57.03 56L62 44H59.83L56.8 51.32Z" fill="#14142B"/>
</svg>
