<svg width="40" height="40" viewBox="0 0 40 40" fill="none" xmlns="http://www.w3.org/2000/svg">
<path d="M27.9156 33.9309C27.9156 33.9309 28.0326 33.6553 28.0493 33.5897C28.066 33.5241 27.8187 32.1463 27.8187 32.1463C27.8087 32.1398 27.7752 32.1332 27.7251 32.1365V27.6162H27.7318L27.7251 27.6063V27.5768H27.7084L26.2011 24.8738H24.647V23.5747H23.8215C23.8081 23.0269 23.4505 22.5873 23.153 22.3118C22.9391 22.1117 22.7586 21.9936 22.7586 21.9936H22.6718C20.9706 21.7902 21.0441 20.1467 21.0942 19.7072C21.776 19.4447 22.2406 18.9461 22.2406 18.3721C22.2406 17.8702 21.8863 17.424 21.3416 17.1452C24.0387 16.827 25.2018 15.7871 25.6931 14.8555C27.7385 12.9102 28.7244 12.907 28.8414 12.7462C28.925 11.562 27.6449 11.772 27.6449 11.772L25.9872 12.989C25.9872 12.989 25.9939 13.0152 25.9805 13.0841C25.7399 12.5855 25.1182 12.2542 25.0815 12.2345C25.0781 10.8666 24.9311 7.01541 27.2472 5.06031C26.7659 5.01766 12.7555 4.97502 12.7121 5.01766C12.7121 5.01766 15.2722 7.02525 14.9313 12.2738H14.9246C14.9246 12.2738 14.3932 12.3493 13.9888 13.048C13.9821 13.0021 13.9821 12.9791 13.9888 12.989L12.3277 11.772C12.3277 11.772 11.051 11.562 11.1346 12.7462C11.2516 12.907 12.2809 12.907 14.4199 14.9867C14.4233 14.9966 14.4233 14.9867 14.4199 14.9605C15.2989 16.5351 17.2842 16.9845 18.6545 17.1452C18.1097 17.424 17.7588 17.8669 17.7588 18.3688C17.7588 18.9363 18.21 19.4283 18.8784 19.6941C18.9152 20.1697 18.9452 21.9805 17.3076 21.9838C17.1505 21.9838 17.3209 21.9838 17.6819 21.9903H17.2875C17.2875 21.9903 17.1104 22.0953 16.8965 22.2855C16.589 22.5578 16.2013 23.0105 16.1946 23.5747H15.3524V24.8738H13.7682L12.301 27.5768V27.5833V32.1365C12.2342 32.1332 12.194 32.1365 12.1807 32.1463C12.1807 32.1463 11.9334 33.5274 11.9501 33.5897C11.9668 33.6553 12.0838 33.9309 12.0838 33.9309C12.0838 33.9309 10.8238 34.1244 11.0209 34.7411C11.2449 35.0462 12.0336 35.0495 12.2308 34.9051C12.9694 34.1933 13.688 33.6816 13.9687 33.4913H26.0306C26.308 33.6816 27.0299 34.1933 27.7686 34.9051C27.9691 35.0528 28.7578 35.0495 28.9784 34.7411C29.179 34.1244 27.9156 33.9309 27.9156 33.9309Z" fill="#3E31FA"/>
</svg>
