<svg width="40" height="40" viewBox="0 0 40 40" fill="none" xmlns="http://www.w3.org/2000/svg">
<path fill-rule="evenodd" clip-rule="evenodd" d="M22.6649 22.9237C22.0186 23.1322 21.3392 23.2669 20.6365 23.3179L20.6365 32.7273H22.6649V22.9237ZM23.9376 34H22.6649H20.6365H19.3638H17.3354H16.0626H14.0341H12.7614H6.55682V32.7273H12.7614L12.7614 19.4449C11.8564 18.0757 11.3296 16.4346 11.3296 14.6705C11.3296 9.88189 15.2114 6 20 6C24.7886 6 28.6705 9.88189 28.6705 14.6705C28.6705 16.4345 28.1437 18.0755 27.2388 19.4447L27.2388 32.7273H33.4432V34H27.2388H25.966H23.9376ZM25.966 32.7273H23.9376L23.9376 22.3973C24.6825 22.0169 25.3651 21.5321 25.966 20.962V32.7273ZM14.0341 32.7273H16.0626L16.0626 22.3974C15.3177 22.0171 14.6351 21.5322 14.0341 20.9621L14.0341 32.7273ZM17.3354 32.7273H19.3638L19.3638 23.3179C18.6611 23.267 17.9817 23.1323 17.3354 22.9238L17.3354 32.7273Z" fill="#3E31FA"/>
</svg>
